<?xml version="1.0" standalone="no"?>
<!DOCTYPE svg PUBLIC "-//W3C//DTD SVG 20010904//EN"
 "http://www.w3.org/TR/2001/REC-SVG-20010904/DTD/svg10.dtd">
<svg version="1.0" xmlns="http://www.w3.org/2000/svg"
 width="512.000000pt" height="512.000000pt" viewBox="0 0 512.000000 512.000000"
 preserveAspectRatio="xMidYMid meet">
<metadata>
Created by potrace 1.11, written by Peter Selinger 2001-2013
</metadata>
<g transform="translate(0.000000,512.000000) scale(0.100000,-0.100000)"
fill="#000000" stroke="none">
<path d="M490 2565 l0 -2115 813 0 812 0 0 785 c0 432 0 785 1 785 0 0 43 -53
95 -117 51 -65 96 -120 99 -123 3 -3 52 -63 110 -135 57 -71 107 -132 110
-135 3 -3 32 -39 65 -80 33 -41 65 -82 72 -90 7 -8 85 -105 174 -215 89 -110
173 -214 188 -231 14 -17 37 -46 51 -65 14 -18 42 -53 64 -78 47 -57 57 -69
131 -161 33 -41 70 -86 82 -100 13 -14 23 -28 23 -32 0 -5 288 -8 640 -8 l640
0 0 2115 0 2115 -812 -2 -813 -3 0 -782 c0 -431 -2 -783 -5 -783 -3 1 -31 33
-62 73 -31 40 -110 138 -175 218 -151 187 -355 440 -563 699 -90 113 -167 207
-170 210 -3 3 -39 48 -80 100 -41 52 -83 104 -93 115 -10 11 -42 50 -70 88
l-52 67 -637 0 -638 0 0 -2115z"/>
</g>
</svg>
